<?xml version="1.0" standalone="no"?>
<!DOCTYPE svg PUBLIC "-//W3C//DTD SVG 20010904//EN"
 "http://www.w3.org/TR/2001/REC-SVG-20010904/DTD/svg10.dtd">
<svg version="1.0" xmlns="http://www.w3.org/2000/svg"
 width="420.000000pt" height="226.000000pt" viewBox="0 0 420.000000 226.000000"
 preserveAspectRatio="xMidYMid meet">

<g transform="translate(0.000000,226.000000) scale(0.100000,-0.100000)"
fill="#000000" stroke="none">
<path d="M2100 2241 c-14 -4 -35 -14 -47 -21 -18 -12 -29 -11 -76 5 -48 16
-61 17 -99 6 -88 -26 -160 -88 -351 -303 -44 -48 -72 -88 -65 -90 8 -3 7 -16
-6 -49 -36 -88 -19 -170 55 -272 16 -22 29 -48 29 -58 0 -11 6 -16 18 -13 13
4 24 -10 44 -53 26 -56 63 -217 53 -233 -3 -4 2 -14 11 -21 14 -12 15 -9 10
26 -4 22 -9 47 -11 55 -3 8 -7 29 -9 45 -2 17 -9 64 -15 105 -5 41 -12 104
-15 139 -4 52 -3 60 8 46 11 -15 17 -13 61 25 67 56 110 73 162 65 24 -3 45
-10 48 -16 4 -5 12 -9 18 -9 26 0 -50 50 -85 56 -25 4 -40 13 -44 26 -8 27 4
115 21 153 l13 30 1 -49 c1 -49 19 -126 30 -126 3 0 6 35 6 77 0 88 24 167 57
184 19 10 72 21 170 36 31 4 41 1 62 -22 35 -38 56 -108 56 -189 0 -50 3 -66
10 -56 5 8 10 25 10 38 0 34 14 26 29 -15 7 -21 24 -50 38 -64 l24 -26 -73
-27 c-40 -14 -81 -26 -90 -26 -9 0 -20 -4 -23 -10 -11 -17 51 -11 119 11 70
23 124 21 146 -6 22 -26 32 -16 14 14 -9 15 -29 36 -45 45 -27 16 -56 77 -73
151 -5 22 1 16 24 -25 39 -70 85 -117 127 -131 26 -8 35 -18 43 -49 6 -22 8
-61 6 -87 -3 -26 -7 -82 -10 -123 l-6 -75 24 48 c13 26 41 63 62 81 22 18 45
51 53 72 8 22 25 56 39 77 19 28 25 48 22 80 -1 23 -3 56 -4 72 -3 43 -76 190
-131 264 -55 72 -119 125 -208 175 -50 27 -77 35 -137 39 -41 3 -86 2 -100 -2z
m-347 -549 c11 -17 -12 -45 -30 -38 -8 3 -12 2 -10 -2 3 -4 -8 -22 -23 -40
l-27 -33 9 53 c5 29 19 73 30 98 l21 45 11 -35 c6 -19 15 -41 19 -48z"/>
<path d="M2235 1586 c-32 -14 -48 -30 -58 -59 -4 -10 8 -2 27 17 41 44 95 50
134 14 l25 -23 -12 23 c-12 22 -48 42 -74 42 -7 -1 -26 -7 -42 -14z"/>
<path d="M1776 1549 c-14 -17 -26 -38 -26 -47 0 -10 7 -3 16 15 29 58 104 67
144 16 14 -18 20 -21 20 -10 0 26 -49 57 -90 57 -30 0 -44 -6 -64 -31z"/>
<path d="M2236 1544 c-33 -33 -8 -112 30 -97 26 9 34 23 34 59 0 49 -33 69
-64 38z m54 -54 c0 -5 -4 -10 -10 -10 -5 0 -10 5 -10 10 0 6 5 10 10 10 6 0
10 -4 10 -10z"/>
<path d="M1831 1526 c-18 -22 -9 -66 16 -83 20 -13 23 -12 39 12 32 49 -19
115 -55 71z m59 -46 c0 -5 -4 -10 -10 -10 -5 0 -10 5 -10 10 0 6 5 10 10 10 6
0 10 -4 10 -10z"/>
<path d="M2012 1490 c0 -14 2 -19 5 -12 2 6 2 18 0 25 -3 6 -5 1 -5 -13z"/>
<path d="M2543 1388 c-15 -20 -25 -38 -20 -38 3 0 12 11 21 25 17 26 16 35 -1
13z"/>
<path d="M1547 1383 c-12 -12 -7 -22 8 -17 12 5 15 -2 15 -30 0 -22 7 -43 19
-55 11 -11 27 -32 35 -48 13 -24 15 -25 16 -7 0 11 -7 29 -15 40 -8 10 -15 31
-15 45 0 15 -9 38 -21 53 -21 27 -31 31 -42 19z m53 -66 c0 -5 -4 -5 -10 -2
-5 3 -10 14 -10 23 0 15 2 15 10 2 5 -8 10 -19 10 -23z"/>
<path d="M1722 1378 c-18 -18 -14 -32 5 -17 9 8 18 13 20 12 1 -2 3 0 4 4 1
13 -16 14 -29 1z"/>
<path d="M2551 1344 c0 -11 3 -14 6 -6 3 7 2 16 -1 19 -3 4 -6 -2 -5 -13z"/>
<path d="M2503 1293 c-10 -34 -10 -36 3 -19 12 17 20 56 11 56 -1 0 -7 -17
-14 -37z"/>
<path d="M2462 1255 c0 -16 2 -22 5 -12 2 9 2 23 0 30 -3 6 -5 -1 -5 -18z"/>
<path d="M2452 1200 c0 -14 2 -19 5 -12 2 6 2 18 0 25 -3 6 -5 1 -5 -13z"/>
<path d="M2008 1033 c-40 -10 -14 -22 48 -22 45 1 64 4 61 12 -4 12 -78 19
-109 10z"/>
<path d="M2315 944 c-33 -30 -84 -69 -113 -86 -29 -17 -51 -33 -48 -35 8 -8
76 37 148 99 l67 58 4 -98 c3 -53 9 -115 15 -137 11 -39 11 -39 6 15 -3 30 -8
96 -12 146 l-7 92 -60 -54z"/>
<path d="M2058 953 c7 -3 16 -2 19 1 4 3 -2 6 -13 5 -11 0 -14 -3 -6 -6z"/>
<path d="M1803 899 c-8 -21 -8 -31 2 -39 7 -6 13 -20 13 -33 0 -12 3 -44 6
-72 3 -31 0 -57 -7 -70 -9 -15 -11 -53 -6 -145 4 -69 2 -155 -3 -192 -5 -37
-7 -76 -5 -85 3 -10 5 0 6 22 3 66 18 11 20 -75 3 -87 11 -109 11 -28 l0 54
74 -37 c101 -51 177 -59 266 -29 71 24 154 68 200 107 35 29 38 23 9 -20 l-22
-32 26 27 c32 32 34 72 20 303 l-10 150 -1 -127 -2 -128 -50 -39 c-121 -95
-253 -132 -354 -98 -68 23 -163 91 -168 122 -3 14 -1 25 6 25 13 0 104 -25
129 -35 9 -4 17 -3 17 2 0 5 -35 19 -78 32 l-79 23 -2 47 c-1 28 5 61 14 77
15 28 15 132 -1 259 -4 34 -3 38 8 25 17 -20 108 -64 115 -56 4 3 1 6 -5 6 -6
0 -39 20 -75 44 l-64 44 -10 -29z"/>
<path d="M1773 855 c4 -5 -1 -18 -10 -29 -17 -20 -17 -20 0 -7 15 12 17 10 17
-19 0 -38 6 -37 12 0 1 14 6 27 10 30 4 3 -3 12 -15 19 -12 8 -19 10 -14 6z"/>
<path d="M1993 808 c15 -9 106 -9 129 0 10 4 -18 7 -61 7 -44 0 -74 -3 -68 -7z"/>
<path d="M1753 778 c-2 -16 1 -18 10 -9 7 7 8 14 1 21 -6 6 -10 2 -11 -12z"/>
<path d="M1696 759 c-11 -19 -22 -26 -34 -23 -16 5 -16 5 0 -6 16 -10 16 -13
-2 -44 -10 -19 -16 -37 -12 -42 4 -4 2 -4 -4 -1 -7 4 -15 -4 -19 -21 -6 -26
-7 -26 -21 -8 -10 14 -14 16 -14 5 0 -11 -2 -11 -8 -1 -6 8 -9 3 -9 -15 0 -16
-3 -42 -6 -58 -6 -22 -5 -26 3 -14 9 15 17 46 19 73 1 5 8 3 15 -4 13 -10 13
-16 -2 -48 -9 -20 -21 -40 -25 -43 -5 -3 -8 -9 -8 -13 3 -23 0 -30 -9 -16 -7
11 -10 11 -10 2 0 -7 -4 -11 -10 -7 -5 3 -7 13 -4 23 5 16 5 16 -6 0 -10 -17
-36 -27 -26 -10 2 4 0 14 -5 22 -7 11 -9 8 -7 -14 2 -16 -2 -31 -9 -33 -8 -3
-11 3 -8 17 8 44 17 60 27 54 7 -5 9 -1 5 9 -3 9 1 24 11 34 16 16 17 15 24
-13 5 -18 6 -11 3 21 -3 35 -2 44 4 30 l10 -20 2 20 c1 11 2 26 2 33 -1 10 2
10 14 1 11 -10 13 -10 11 1 -2 7 3 15 11 18 10 3 12 0 7 -14 -6 -15 -5 -17 5
-6 11 10 10 15 -4 29 -11 11 -17 13 -17 5 0 -7 -5 -12 -11 -12 -8 0 -8 5 1 15
7 8 16 13 20 10 4 -3 10 5 13 16 4 13 10 18 17 14 9 -6 9 -10 -1 -17 -11 -7
-9 -8 4 -4 10 3 21 6 24 6 2 0 -2 7 -11 15 -14 14 -25 14 -108 -1 -93 -17
-123 -30 -257 -116 -42 -26 -84 -40 -51 -17 13 9 12 10 -2 5 -10 -3 -18 0 -18
5 0 7 9 9 21 6 25 -7 51 2 43 14 -3 5 -10 9 -15 9 -6 0 -7 -5 -4 -10 4 -7 -2
-9 -18 -5 -14 4 -28 2 -32 -4 -3 -6 -18 -9 -33 -6 -21 4 -20 2 6 -7 17 -6 32
-15 32 -20 0 -5 -4 -6 -10 -3 -5 3 -10 -1 -10 -9 0 -9 -9 -21 -20 -28 -11 -7
-20 -20 -20 -28 0 -9 11 -2 28 18 26 30 30 31 42 17 10 -12 15 -13 21 -4 4 7
5 18 2 26 -3 7 0 13 6 13 6 0 11 -5 11 -12 0 -6 13 1 30 17 16 16 33 25 37 22
3 -4 1 -7 -5 -7 -6 0 -9 -8 -6 -17 4 -12 3 -14 -3 -6 -6 9 -18 3 -43 -20 -36
-34 -50 -39 -63 -22 -4 5 -6 -1 -5 -14 3 -24 1 -25 -59 -33 -8 -1 -9 -7 -2
-19 7 -14 6 -17 -5 -13 -15 6 -15 14 3 58 9 23 9 31 -1 37 -15 9 -18 7 -23
-18 -2 -10 -4 -19 -5 -20 -3 -4 -5 -13 -14 -66 -4 -26 -11 -45 -16 -42 -8 5
-24 -12 -25 -26 0 -12 -33 -38 -40 -31 -5 4 -5 1 -1 -6 4 -7 12 -10 17 -7 12
8 12 -8 0 -20 -6 -6 -11 -30 -14 -55 -3 -44 -4 -44 -5 10 -2 42 -5 51 -13 40
-9 -12 -10 -11 -6 8 3 13 0 22 -6 22 -7 0 -5 5 3 10 12 8 12 10 1 10 -11 0
-11 3 -1 15 11 13 14 14 24 0 7 -9 16 -12 25 -6 9 6 10 11 2 15 -6 4 -11 14
-11 23 0 11 3 13 13 5 9 -8 12 3 12 49 -1 43 3 59 13 59 7 0 10 -4 7 -10 -3
-6 1 -7 10 -3 13 5 14 7 3 14 -7 5 -8 9 -3 9 6 0 3 4 -5 9 -8 6 -18 7 -22 5
-18 -11 -47 -84 -41 -100 4 -12 3 -15 -5 -10 -11 6 -16 -5 -13 -26 0 -4 -8
-12 -19 -18 -11 -6 -17 -18 -15 -30 2 -11 0 -20 -6 -20 -5 0 -9 -5 -9 -11 0
-5 4 -8 9 -5 11 7 23 -48 15 -69 -4 -8 -1 -15 6 -15 8 0 10 -9 5 -27 -10 -41
-27 -54 -19 -15 4 19 2 32 -4 32 -5 0 -8 -10 -5 -22 4 -19 3 -20 -6 -8 -14 20
-13 13 4 -35 8 -22 14 -32 15 -22 0 23 26 51 35 38 3 -5 2 -12 -3 -15 -5 -3
-7 -20 -6 -38 3 -30 3 -30 -5 -8 -6 17 -8 4 -6 -43 2 -38 5 -71 8 -73 8 -9 15
24 37 176 24 170 30 188 73 217 18 13 42 31 53 40 45 42 121 101 142 112 24
13 48 5 72 -24 8 -9 30 -25 51 -35 31 -16 59 -57 59 -88 0 -2 -21 12 -46 33
-57 47 -71 45 -224 -30 -63 -31 -104 -53 -90 -50 14 4 72 29 129 56 57 27 113
49 125 49 30 0 126 -93 126 -122 0 -13 -9 -36 -19 -51 l-19 -29 -17 46 c-10
26 -21 49 -26 51 -4 3 4 -24 18 -59 35 -87 19 -150 -24 -98 -8 9 -5 0 6 -21
21 -37 21 -39 4 -78 -14 -30 -21 -37 -33 -29 -12 7 -12 12 -2 22 19 19 14 33
-6 15 -10 -10 -26 -17 -34 -17 -24 0 -56 -32 -64 -62 -6 -27 -5 -28 35 -28 30
0 41 4 41 16 0 8 5 12 10 9 6 -3 10 -2 10 4 0 5 -6 12 -12 15 -7 3 2 5 20 3
17 -2 32 0 32 5 0 5 5 6 12 2 8 -5 9 -2 5 9 -4 10 -1 17 5 17 6 0 9 3 5 6 -6
6 45 54 57 54 3 0 6 -5 6 -11 0 -5 -4 -8 -9 -5 -5 3 -12 -1 -15 -9 -4 -12 -2
-13 13 -6 11 6 19 21 19 36 0 30 31 58 49 44 7 -7 14 -6 18 1 4 6 1 9 -6 8
-23 -5 -15 26 13 55 16 15 26 32 23 36 -7 12 22 34 35 26 6 -3 7 -11 4 -17 -4
-7 -9 -6 -14 2 -5 9 -9 9 -14 1 -4 -6 -2 -11 4 -11 6 0 8 -6 4 -12 -4 -7 5 -2
19 11 27 25 35 37 17 26 -5 -3 -10 -1 -10 4 0 6 4 11 9 11 5 0 18 3 28 7 16 6
17 5 3 -12 -9 -11 -10 -16 -2 -11 7 4 15 1 18 -9 4 -9 13 -14 21 -11 8 3 11 1
8 -4 -3 -6 -2 -10 2 -10 9 0 33 -57 33 -77 0 -6 -9 -13 -20 -16 -11 -3 -20
-11 -19 -19 0 -10 2 -10 6 0 6 15 33 16 33 1 0 -5 -5 -7 -11 -3 -7 4 -9 0 -5
-13 4 -11 0 -49 -8 -84 -14 -56 -14 -80 -2 -68 2 2 14 52 27 111 21 101 21
108 5 142 -29 62 -64 96 -100 96 -44 0 -67 -19 -130 -109 -52 -74 -86 -112
-86 -97 0 23 75 230 99 274 16 28 26 50 21 47 -4 -3 -3 6 3 19 7 13 16 22 21
19 5 -4 6 -1 3 4 -4 6 -1 26 7 43 9 22 15 28 19 19 3 -8 6 -5 6 8 1 12 12 46
25 75 13 29 27 63 31 76 3 12 11 19 17 16 7 -4 8 -2 4 5 -4 6 -3 18 3 25 8 9
7 13 -3 13 -8 0 -21 -13 -30 -28z m-461 -199 c3 -5 2 -10 -4 -10 -5 0 -13 5
-16 10 -3 6 -2 10 4 10 5 0 13 -4 16 -10z m-194 -88 c-6 -11 -8 -22 -4 -25 3
-4 0 -13 -6 -21 -7 -8 -10 -25 -6 -38 6 -22 5 -22 -9 2 -12 21 -12 26 2 36 8
6 12 16 8 22 -4 6 -1 20 6 31 15 25 23 19 9 -7z m134 8 c-3 -5 -12 -10 -18
-10 -7 0 -6 4 3 10 19 12 23 12 15 0z m371 -24 c6 -17 -36 -90 -46 -79 -17 19
-20 62 -4 77 19 20 43 21 50 2z m-423 -21 c-3 -9 -8 -14 -10 -11 -3 3 -2 9 2
15 9 16 15 13 8 -4z m612 -115 c3 -5 2 -10 -4 -10 -5 0 -13 5 -16 10 -3 6 -2
10 4 10 5 0 13 -4 16 -10z"/>
<path d="M2555 738 c17 -41 65 -126 65 -115 0 10 -69 147 -75 147 -2 0 2 -15
10 -32z"/>
<path d="M1719 713 c-13 -16 -12 -17 4 -4 16 13 21 21 13 21 -2 0 -10 -8 -17
-17z"/>
<path d="M1755 719 c-4 -6 -5 -12 -2 -15 2 -3 7 2 10 11 7 17 1 20 -8 4z"/>
<path d="M1796 693 c-6 -14 -5 -15 5 -6 7 7 10 15 7 18 -3 3 -9 -2 -12 -12z"/>
<path d="M1627 679 c7 -7 15 -10 18 -7 3 3 -2 9 -12 12 -14 6 -15 5 -6 -5z"/>
<path d="M3008 653 c6 -2 18 -2 25 0 6 3 1 5 -13 5 -14 0 -19 -2 -12 -5z"/>
<path d="M3063 643 c9 -2 23 -2 30 0 6 3 -1 5 -18 5 -16 0 -22 -2 -12 -5z"/>
<path d="M1670 608 c-12 -22 -12 -22 6 -6 10 10 15 20 12 24 -4 3 -12 -5 -18
-18z"/>
<path d="M2621 609 c-1 -9 34 -109 73 -206 19 -49 36 -104 38 -122 1 -18 7
-35 12 -38 17 -11 -5 71 -55 202 -54 141 -67 173 -68 164z"/>
<path d="M1134 579 c-5 -9 -2 -10 9 -6 9 3 18 0 20 -9 4 -10 5 -9 3 2 -1 21
-22 29 -32 13z"/>
<path d="M1086 561 c-3 -5 0 -11 7 -14 8 -3 14 1 14 9 0 16 -13 19 -21 5z"/>
<path d="M1060 439 c0 -16 4 -28 9 -25 8 5 3 56 -5 56 -2 0 -4 -14 -4 -31z"/>
<path d="M2295 450 c-13 -5 -14 -9 -5 -9 8 0 24 4 35 9 13 5 14 9 5 9 -8 0
-24 -4 -35 -9z"/>
<path d="M2519 410 c-21 -22 -44 -58 -50 -80 -7 -21 -16 -37 -21 -34 -9 6 -1
-36 13 -71 7 -15 8 -10 7 18 -2 23 3 41 11 46 10 7 10 10 1 13 -10 3 -9 12 4
36 9 18 21 30 27 27 5 -4 6 -11 3 -17 -4 -7 -2 -8 4 -4 8 5 12 -2 12 -18 0
-14 -5 -26 -11 -26 -8 0 -7 -5 1 -15 7 -9 21 -77 31 -153 17 -127 18 -130 12
-42 -3 52 -7 118 -8 145 -1 28 -5 60 -9 73 -5 14 -3 29 4 37 9 11 8 19 -4 36
-13 19 -13 23 0 37 19 18 79 27 68 10 -4 -7 -3 -8 4 -4 13 8 35 -28 24 -39 -4
-5 -1 -4 7 0 10 6 13 4 9 -6 -3 -8 6 -24 18 -37 31 -29 30 -22 -2 36 -37 67
-43 72 -82 72 -28 0 -43 -8 -73 -40z"/>
<path d="M2248 433 c7 -3 16 -2 19 1 4 3 -2 6 -13 5 -11 0 -14 -3 -6 -6z"/>
<path d="M2186 421 c-3 -4 6 -6 19 -3 14 2 25 6 25 8 0 8 -39 4 -44 -5z"/>
<path d="M1378 363 c7 -3 16 -2 19 1 4 3 -2 6 -13 5 -11 0 -14 -3 -6 -6z"/>
<path d="M1250 339 c-57 -17 -60 -19 -20 -14 55 7 146 34 110 33 -14 0 -54 -9
-90 -19z"/>
<path d="M2431 324 c0 -11 3 -14 6 -6 3 7 2 16 -1 19 -3 4 -6 -2 -5 -13z"/>
<path d="M933 298 c-19 -25 -26 -41 -15 -34 13 8 26 -10 16 -25 -4 -8 -9 -7
-16 2 -8 11 -9 10 -4 -3 6 -21 -2 -48 -16 -48 -5 0 -7 10 -3 23 5 19 4 20 -5
4 -11 -17 -6 -37 10 -37 11 0 46 57 55 90 5 18 4 21 -4 10 -5 -8 -14 -11 -18
-6 -4 4 1 14 11 22 11 8 15 14 9 14 -6 0 -15 -6 -20 -12z"/>
<path d="M1674 278 c-10 -13 -12 -18 -4 -12 8 6 23 10 32 9 11 -2 15 2 11 11
-7 20 -17 18 -39 -8z"/>
<path d="M3211 220 c0 -47 -4 -115 -8 -152 -5 -56 -3 -68 9 -68 8 0 20 11 26
25 7 14 47 72 90 128 44 56 85 113 92 127 17 33 2 17 -46 -50 -55 -77 -125
-164 -140 -173 -9 -5 -12 2 -10 32 2 22 0 79 -4 128 l-7 88 -2 -85z"/>
<path d="M1735 260 c-3 -5 -1 -10 4 -10 6 0 11 5 11 10 0 6 -2 10 -4 10 -3 0
-8 -4 -11 -10z"/>
<path d="M1590 241 c-7 -15 -7 -22 2 -27 7 -4 10 -4 6 1 -4 4 -3 16 3 26 5 11
7 19 5 19 -3 0 -10 -9 -16 -19z"/>
<path d="M2423 225 c0 -22 2 -30 4 -17 2 12 2 30 0 40 -3 9 -5 -1 -4 -23z"/>
<path d="M1750 231 c0 -6 4 -13 10 -16 6 -3 7 1 4 9 -7 18 -14 21 -14 7z"/>
<path d="M1295 221 c-44 -9 -27 -26 23 -24 53 2 75 10 67 23 -7 11 -43 11 -90
1z"/>
<path d="M2471 190 c0 -8 4 -24 9 -35 5 -13 9 -14 9 -5 0 8 -4 24 -9 35 -5 13
-9 14 -9 5z"/>
<path d="M850 130 c-6 -11 -8 -20 -6 -20 3 0 10 9 16 20 6 11 8 20 6 20 -3 0
-10 -9 -16 -20z"/>
<path d="M1715 75 c-7 -68 -1 -91 16 -65 8 13 4 119 -5 128 -2 1 -7 -27 -11
-63z"/>
<path d="M2432 120 c0 -14 2 -19 5 -12 2 6 2 18 0 25 -3 6 -5 1 -5 -13z"/>
<path d="M826 100 c4 -8 19 -31 32 -50 20 -29 23 -31 17 -10 -4 14 -18 36 -32
50 -14 14 -22 18 -17 10z"/>
<path d="M2469 76 c-7 -19 -16 -33 -21 -30 -4 3 -8 -6 -8 -20 0 -42 14 -30 32
27 18 59 17 77 -3 23z"/>
<path d="M1842 65 c0 -16 2 -22 5 -12 2 9 2 23 0 30 -3 6 -5 -1 -5 -18z"/>
<path d="M810 63 c0 -4 13 -17 28 -28 l27 -19 -16 24 c-16 24 -39 38 -39 23z"/>
<path d="M802 34 c10 -10 20 -16 22 -13 3 3 -5 11 -17 18 -21 13 -21 12 -5 -5z"/>
<path d="M1437 34 c-3 -5 1 -15 9 -22 16 -14 18 -5 5 17 -5 7 -11 9 -14 5z"/>
</g>
</svg>
